<?xml version="1.0" encoding="utf-8"?>
<!-- Generator: Adobe Illustrator 25.3.1, SVG Export Plug-In . SVG Version: 6.00 Build 0)  -->
<svg version="1.1" id="Layer_1" xmlns="http://www.w3.org/2000/svg" xmlns:xlink="http://www.w3.org/1999/xlink" x="0px" y="0px"
	 viewBox="0 0 90 90" style="enable-background:new 0 0 90 90;" xml:space="preserve">
<style type="text/css">
	.st0{fill:url(#SVGID_1_);}
	.st1{fill:#040100;}
	.st2{fill:none;stroke:#FFFFFF;stroke-miterlimit:10;}
	.st3{fill:#FFFFFF;}
	.st4{font-family:'TimesNewRomanPSMT';}
	.st5{font-size:71px;}
</style>
<linearGradient id="SVGID_1_" gradientUnits="userSpaceOnUse" x1="45" y1="90" x2="45" y2="3.694822e-13">
	<stop  offset="0" style="stop-color:#FFFFFF"/>
	<stop  offset="0.0117" style="stop-color:#FBFDFD"/>
	<stop  offset="0.2303" style="stop-color:#B0D5D9"/>
	<stop  offset="0.4352" style="stop-color:#71B3BB"/>
	<stop  offset="0.6203" style="stop-color:#4099A4"/>
	<stop  offset="0.782" style="stop-color:#1D8793"/>
	<stop  offset="0.9141" style="stop-color:#087B89"/>
	<stop  offset="1" style="stop-color:#007785"/>
</linearGradient>
<path class="st0" d="M90,64.25V12c0-6.6-5.4-12-12-12H12C5.4,0,0,5.4,0,12v52.25C12.21,57.85,27.89,54,45,54S77.79,57.85,90,64.25z"
	/>
<path class="st1" d="M12,90h66c6.6,0,12-5.4,12-12V64.25C77.79,57.85,62.11,54,45,54S12.21,57.85,0,64.25V78C0,84.6,5.4,90,12,90z"
	/>
<path class="st2" d="M-0.25,64c31.65-13.62,61.59-13.05,90,0"/>
<text transform="matrix(1 0 0 1 13.4348 66.2651)" class="st3 st4 st5">M</text>
</svg>
