<?xml version="1.0" encoding="utf-8"?>
<!-- Generator: Adobe Illustrator 25.3.1, SVG Export Plug-In . SVG Version: 6.00 Build 0)  -->
<svg version="1.1" id="Fundação" xmlns="http://www.w3.org/2000/svg" xmlns:xlink="http://www.w3.org/1999/xlink" x="0px" y="0px"
	 viewBox="0 0 260 50" style="enable-background:new 0 0 260 50;" xml:space="preserve">
<path d="M197.61,22.59h2.12v-14l13.68,14.79V3.88h-2.12v14.21L197.61,3.15V22.59z M186.9,8.07l3,6.88h-6L186.9,8.07z M186.9,3.15
	l-8.48,19.44h2.41l2.43-5.73h7.31l2.43,5.73h2.41L186.9,3.15z M174,22.59h2.23V3.88H174V22.59z M158.64,22.59h2.2V12.52l8.43,10.07
	h2.88l-8.85-10.28l8-8.43h-2.67l-7.85,8.32V3.88h-2.2L158.64,22.59z M139.02,22.59h2.12v-14l13.68,14.79V3.88h-2.12v14.21L139,3.15
	L139.02,22.59z M125.51,22.59h9.87v-2.06h-7.64v-7.17h7.64v-2.07h-7.64V5.92h7.64v-2h-9.87V22.59z M110.94,22.59h3.9
	c2.67,0,4.5-0.07,5.86-1.41c1.01-1.05,1.56-2.45,1.54-3.9c0-2.51-1.38-4.26-3.58-4.6c1.73-0.47,2.87-2.1,2.74-3.88
	c0.05-1.56-0.65-3.05-1.88-4c-1.18-0.87-2.67-1-4.71-1h-3.9L110.94,22.59z M113.11,13.83h2.38c0.98-0.1,1.96,0.07,2.85,0.49
	c1.05,0.62,1.65,1.79,1.55,3c0.02,1.04-0.45,2.03-1.26,2.68c-0.81,0.58-2,0.63-3.82,0.63h-1.73L113.11,13.83z M113.11,5.83h1.73
	c3,0,4.31,0.55,4.31,3.24c0,2.28-1.3,3-4.31,3h-1.73V5.83z M98.84,22.59h9.29v-2.12h-7.06V3.88h-2.23V22.59z M80.45,3.88v11.65
	c0,5,2.38,7.56,7.25,7.56s7.24-2.51,7.24-7.56V3.88h-2.25v11.65c0,3.74-1.51,5.49-5,5.49s-5-1.75-5-5.49V3.88H80.45z M69.77,12.94v2
	h5.34c-0.17,3.56-3.19,6.31-6.75,6.15c-4.27,0-7.33-3.17-7.33-7.65c0-4.73,3-7.95,7.33-7.95c2.48-0.09,4.8,1.23,6,3.4l1.85-1.49
	c-1.75-2.64-4.39-3.93-8-3.93c-2.43-0.08-4.79,0.79-6.58,2.43c-2.03,1.97-3.12,4.71-3,7.53c-0.15,3.54,1.71,6.86,4.81,8.57
	c1.45,0.75,3.07,1.13,4.71,1.1c5.7,0,9.34-3.56,9.34-9.52v-0.63L69.77,12.94z"/>
<path d="M148.51,48.83h9.86v-2.07h-7.64v-7.17h7.64v-2.06h-7.64v-5.37h7.64v-2h-9.86V48.83z M145.24,34.6v-2.91
	c-1.79-1.29-3.94-1.99-6.15-2c-2.61-0.07-5.14,0.92-7,2.75c-1.95,1.85-3.02,4.45-2.93,7.14c-0.04,3.21,1.54,6.22,4.21,8
	c1.62,1.13,3.55,1.73,5.52,1.73c2.26,0.01,4.47-0.69,6.31-2v-3c-1.48,1.88-3.74,2.99-6.13,3c-2.52,0-4.88-1.24-6.3-3.33
	c-0.89-1.3-1.34-2.85-1.29-4.42c-0.13-4.18,3.16-7.67,7.34-7.8c0.05,0,0.1,0,0.15,0c2.4-0.03,4.69,1.02,6.23,2.86 M111.09,48.83
	h2.12v-14l13.68,14.78V30.12h-2.12v14.21l-13.68-14.94V48.83z M97.66,48.83h9.87v-2.07h-7.64v-7.17h7.64v-2.06h-7.64v-5.37h7.64v-2
	h-9.87L97.66,48.83z M91.66,48.83h2.22V30.12H91.7L91.66,48.83z M87.88,34.6v-2.91c-1.79-1.29-3.94-1.99-6.15-2
	c-2.61-0.07-5.14,0.92-7,2.75c-1.95,1.85-3.02,4.45-2.93,7.14c-0.04,3.21,1.54,6.22,4.21,8c1.62,1.13,3.55,1.73,5.52,1.73
	c2.26,0.01,4.47-0.69,6.31-2v-3c-1.47,1.88-3.73,2.99-6.12,3c-2.51,0-4.85-1.24-6.27-3.31c-0.88-1.3-1.33-2.85-1.28-4.42
	c-0.14-4.17,3.13-7.66,7.3-7.8c0.06,0,0.12,0,0.18,0c2.4-0.03,4.69,1.02,6.23,2.86 M66.68,38.48L64,37.27
	c-1.7-0.74-2.51-1.68-2.51-3c-0.03-1.47,1.14-2.69,2.61-2.73c0.08,0,0.16,0,0.24,0.01c1.38,0.04,2.61,0.88,3.17,2.14l1.83-1.18
	c-0.89-1.84-2.8-2.96-4.84-2.82c-3.11,0-5.26,2-5.26,4.6c0,2.28,1.2,3.9,3.69,4.95l2.28,1c1.93,0.83,2.9,2.06,2.9,3.74
	c0.03,1.9-1.49,3.46-3.39,3.49c-0.12,0-0.24,0-0.35-0.01c-1.88,0-3.17-1.18-3.72-3.46l-2,1c0.57,2.67,3.01,4.51,5.73,4.34
	c3.61,0,6-2.3,6-5.73C70.38,41.26,69.15,39.53,66.68,38.48"/>
<path d="M25.34,50C11.69,50,1,39.8,1,26.78C1,12.8,11.24,2.66,25.34,2.66c8.78,0,15.52,3.48,20,10.35l-2,1.28
	C39.26,8.05,33.37,5,25.34,5C12.62,5,3.39,14.17,3.39,26.78c0,11.69,9.64,20.86,22,20.86c10.42,0,18.62-6.39,20-15.38h-7V29.9H48
	l-0.1,1.27C47,42.08,37.53,50,25.34,50"/>
<path d="M25.61,16.44c0-0.11-0.37-0.21-0.32,0H25.61"/>
<path d="M5,28.11L5,28.11c-0.12,0.12-0.29,0.21-0.46,0.23c-0.22,0-0.33-0.22-0.52-0.19c0.1,0.46,1,0.52,1,0"/>
<path d="M4.28,22.73L4.28,22.73c0.26-0.26,0.52-0.51,0.77-0.8c0.24-0.25,0.46-0.53,0.65-0.82c0.29-0.51-0.39-0.25-0.21-0.26
	c0.04,0.06,0.04,0.15,0,0.21c-0.06,0.2-0.17,0.39-0.33,0.53c-0.33,0.35-0.65,0.66-1,1c0,0.06-0.09,0.25,0,0.18"/>
<path d="M4.26,23.44L4.26,23.44c0.32-0.42,0.63-0.8,0.94-1.16s0.74-0.85,1-1.17c0.06-0.1,0.18-0.24,0.12-0.37
	c-0.17,0.11-0.21,0.31-0.31,0.46c-0.17,0.25-0.37,0.48-0.58,0.69c-0.39,0.41-0.83,0.8-1.22,1.23c-0.08,0.12-0.16,0.59,0.07,0.34"/>
<path d="M44.68,24.76c-0.08-0.14-0.17-0.27-0.27-0.4c-0.24-0.26-0.53-0.48-0.85-0.63c-0.2,0-0.4-0.02-0.6-0.06
	c-0.2-0.01-0.39-0.05-0.58-0.1c-0.32-0.16-0.65-0.28-1-0.37c-0.7-0.07-0.93,0.65-1.61,0.68c-0.06-0.25-0.13-0.5-0.21-0.74
	s-0.3-0.4-0.33-0.63c0-0.13,0.03-0.26,0.08-0.38c0.01-0.11,0.01-0.22,0-0.33c0.07-0.65,0.01-1.31-0.18-1.93
	c-0.12-0.31-0.26-0.62-0.42-0.91l0,0c-0.04-0.06-0.07-0.14-0.09-0.21c0-0.12,0.32-0.23,0.46-0.3c0.39-0.21,0.64-0.33,1-0.56
	c0.16-0.09,0.31-0.3,0.48-0.29s0.18,0.1,0.28,0.16l0,0c0.05,0.05,0.11,0.09,0.18,0.11c0.12,0,0.43,0.11,0.47,0s-0.55-0.2-0.52-0.47
	s0.54-0.09,0.71-0.12c0.26-0.66-0.31-0.92-0.7-1.17c-0.2-0.14-0.41-0.27-0.62-0.39C39.92,15.45,39.47,15.21,39,15
	c-0.12-0.32-0.43-0.53-0.77-0.53c-0.15-0.14-0.11-0.44-0.28-0.54s-0.33,0-0.48,0.06c-0.3,0.07-0.59,0.19-0.85,0.35
	c-0.11,0.07-0.28,0.24-0.23,0.32s0.21,0,0.3-0.1L37,14.4c0.19-0.07,0.54-0.22,0.64-0.09s-0.24,0.26-0.39,0.32s-0.21,0-0.26,0.12
	s0,0.39-0.15,0.45c-0.08,0.02-0.15,0.02-0.23,0c-0.27-0.1-0.47-0.4-0.77-0.47c-0.01,0.18-0.08,0.36-0.21,0.49
	c-0.12,0.16-0.18,0.21-0.26,0.22c-0.16-0.02-0.3-0.09-0.42-0.2c-0.11-0.11-0.33-0.27-0.38-0.44s0.18-0.44,0.15-0.61
	s-0.31-0.16-0.51-0.19c-0.21-0.04-0.42-0.07-0.63-0.08c-0.32,0-0.63,0.06-0.92,0.19c-0.13,0.06-0.35,0.13-0.31,0.23
	s0.28,0,0.42-0.09c0.45-0.12,0.91-0.12,1.36,0c0,0.06-0.17,0.21-0.33,0.23c-0.08,0.01-0.17,0.01-0.25,0c-0.28,0-0.62,0.08-0.62,0.21
	s0.19,0.27,0.39,0.25s0.15-0.08,0.23-0.08s0.15,0.07,0.23,0.08s0.18-0.07,0.26-0.06c0.09,0.04,0.18,0.08,0.26,0.14l0.26,0.15
	c0.12,0.07,0.39,0.27,0.35,0.44s-0.71,0-0.85,0s-0.41,0.18-0.51,0s0.06-0.2,0-0.29s-0.12,0.06-0.22,0c-0.18-0.21-0.28-0.08-0.5-0.14
	c-0.19-0.08-0.36-0.2-0.49-0.36c-0.11-0.13-0.13-0.3-0.26-0.31c-0.09,0.03-0.18,0.07-0.26,0.12c-0.37,0.24-0.66,0.59-0.82,1
	c-0.08,0.17-0.18,0.43-0.36,0.42s-0.39-0.29-0.45-0.47s0-0.22-0.08-0.3c-0.13-0.09-0.25-0.18-0.36-0.28
	c-0.07-0.1-0.12-0.22-0.15-0.34c0-0.16,0.22-0.28,0.19-0.44s-0.28-0.2-0.43-0.27c-0.17-0.08-0.35-0.15-0.53-0.19
	c-0.28-0.03-0.56-0.01-0.84,0.05c-0.23,0-0.61,0.11-0.54,0.27s0.24,0,0.36-0.06c0.32-0.13,0.66-0.18,1-0.15
	c0.16,0,0.78,0.29,0.67,0.5s-0.36-0.11-0.45-0.16c-0.2-0.05-0.41-0.06-0.62-0.05c-0.22,0-0.51,0-0.54,0.17
	c-0.01,0.15,0.09,0.29,0.24,0.32c0.13,0.02,0.25,0.02,0.38,0c0.1,0,0,0.26,0.08,0.27s0.16-0.21,0.32-0.23
	c0.17-0.01,0.34,0.04,0.48,0.15c0.07,0.06,0.09,0.24,0.13,0.3s0.28,0.17,0.28,0.32s-0.16,0.25-0.32,0.27S29,15.6,29,15.64
	s0.06,0.13,0.11,0.18c0.17,0.18,0.29,0.41,0.33,0.66c0.03,0.36-0.08,0.73-0.33,1c-0.23,0.13-0.49,0.17-0.75,0.12
	c-0.18-0.11-0.33-0.26-0.45-0.44c0-0.06-0.08-0.17-0.14-0.17s0,0.23,0,0.23c0.07,0.18,0.16,0.35,0.26,0.52
	c0.1,0.13,0.26,0.21,0.35,0.33c0.17,0.24,0.32,0.49,0.44,0.75c0.01,0.04,0.01,0.09,0,0.13c0,0.08-0.32,0.1-0.5,0.12
	c-0.82,0.07-1.61,0.14-2.43,0.19c-0.43,0-0.76,0.06-1-0.14c-0.05-0.04-0.09-0.08-0.13-0.13l0,0c-0.09-0.11-0.15-0.24-0.17-0.38
	c0-0.17,0.42-0.23,0.61-0.31c0.33-0.21,0.72-0.32,1.11-0.3c0.17,0,0.59,0.33,0.68,0c-0.15-0.1-0.48-0.1-0.49-0.31
	s0.14-0.23,0.27-0.26s0.49,0.12,0.66,0s0-0.31,0-0.48s0.09-0.22,0.08-0.33c0-0.35-0.37-0.49-0.64-0.61s-0.43-0.14-0.45-0.31
	c0-0.19,0.1-0.37,0.27-0.46h0.37c0.12,0,0.4-0.25,0.57-0.24s0.28,0.33,0.45,0.22s-0.11-0.14-0.16-0.22c0.01-0.05,0.01-0.11,0-0.16
	c-0.36-0.16-0.4-0.65-0.77-0.81C26.72,14.29,26.33,14.62,26,15c-0.09,0.13-0.25,0.44-0.42,0.46s-0.57-0.26-0.68-0.36
	c-0.17-0.21-0.36-0.41-0.57-0.58c-0.19-0.1-0.78-0.16-0.79-0.35l0,0L25,13.72c1.35-0.37,7-2,7.48-2.11l1.82-0.52
	c0,0,0.24-0.21,0-0.26l-1,0.3l-7.88,2.27l-1.76,0.49c0-0.08-0.07-0.11-0.24-0.18l0,0l-0.39-0.1h-0.1c-0.46-0.02-0.92,0.07-1.34,0.25
	c-0.11,0.05-0.31,0.18-0.29,0.27s0.16,0,0.23-0.07c0.24-0.14,0.51-0.23,0.78-0.28c0.28,0,1.07-0.11,1,0.21
	c0,0.17-0.4,0.13-0.61,0.14c-0.32-0.01-0.64,0.06-0.92,0.21c0,0.09,0.28,0.31,0.43,0.31s0.15-0.07,0.23-0.07s0.16,0.12,0.25,0.13
	s0.14-0.09,0.24-0.07s0.12,0.16,0.19,0.21c0.18-0.13,0.28-0.31,0.56-0.29c0.14,0.03,0.28,0.08,0.41,0.15
	c0.23,0.1,0.53,0.33,0.45,0.48s-0.33,0.09-0.53,0.15s-0.36,0.2-0.54,0.17s-0.21-0.2-0.36-0.21v0.24c0.48,0.2,1,0.36,1,1
	c-0.24,0.29-0.49,0.8-1,0.68c-0.28-0.12-0.47-0.38-0.5-0.68c0-0.09-0.09-0.33-0.15-0.31c-0.05,0.21-0.05,0.43,0,0.64
	c0.1,0.28,0.3,0.51,0.57,0.64c0.12-0.01,0.24,0.02,0.34,0.08c0.18,0.15,0.27,0.39,0.23,0.62c-0.14,0.21-0.44,0.24-0.72,0.34
	c-0.6,0.21-1.29,0.39-1.9,0.54c-0.1-0.21-0.15-0.45-0.13-0.69v-0.75c-0.03-0.49,0.02-0.98,0.15-1.45c0.05-0.11,0.17-0.27,0.26-0.42
	c0.07-0.15,0.16-0.29,0.27-0.41c0.07-0.06,0.28-0.22,0.41-0.21s0.37,0.34,0.41,0.31s0-0.22,0-0.32s0.19-0.16,0.14-0.25
	s-0.2,0.13-0.38,0.14c-0.17-0.01-0.33-0.08-0.46-0.18c-0.13-0.07-0.25-0.17-0.34-0.29c-0.2-0.25-0.5-0.76-0.57-0.7s0,0.14,0.05,0.24
	v0.17c0,0.07-0.03,0.14-0.07,0.2l-0.21,0.25h-0.18c-0.2,0.06-0.9,0.21-1.1,0.25l-0.15-0.1c-0.07-0.02-0.13-0.02-0.2,0
	c-0.07,0-0.51,0.07-0.66,0.07c-0.18-0.04-0.37-0.04-0.55,0c-0.62,0.21-1.25,0.35-1.9,0.44c-0.56,0.06-1.11,0.17-1.65,0.33
	c-0.11,0.02-0.21,0.02-0.32,0c-0.33-0.04-0.67-0.04-1,0c-0.56,0-0.67-0.15-0.92-0.17h-0.31c-0.01-0.04-0.03-0.07-0.06-0.1
	c-0.07-0.07,0-0.15,0-0.22c-0.07-0.24-0.27-0.45-0.12-0.72c0-0.1-0.15-0.17-0.18-0.29s0-0.12,0.09-0.18c0-0.18-0.07-0.36-0.19-0.49
	c-0.47-0.23-1-0.29-1.51-0.16c-0.33,0.04-0.65,0.16-0.93,0.33c-0.45,0.4-0.69,0.97-0.67,1.57v0.14c0.02,0.04,0.06,0.08,0.11,0.09
	c0.15,0.03,0.29,0.03,0.44,0h0.07c0,0.05,0,0,0.06,0.05c0.01,0.1-0.04,0.19-0.11,0.25h-0.3l-0.6,0.17c-0.37,0.06-0.71,0.21-1,0.44
	c-0.25,0.31-0.47,0.64-0.64,1c-0.13,0.2-0.66,0.55-0.79,1c-0.11,0.31-0.26,0.61-0.43,0.89c-0.08,0.13-0.13,0.27-0.16,0.41V20
	c0,0.11,0.09,0.2,0.26,0.24l0.81,0.11c0.47,0.01,0.93,0.04,1.39,0.11c0.18,0.02,0.35,0.11,0.46,0.26c0.09,0.14,0.2,0.27,0.34,0.36
	c0.11,0.13,0.16,0.29,0.16,0.46v0.18C8.01,21.8,7.99,21.9,8,22c-0.02,0.11-0.02,0.21,0,0.32v0.14c-0.26,0.77-0.76,1.2-1.2,1.16
	l-0.42-0.1L6,23.45c-0.27-0.07-0.17-0.43,0-0.54c0.35-0.34,0.63-0.75,0.8-1.21c0.12-0.27,0.29-0.51,0.51-0.7l0.07-0.09
	c0-0.07,0-0.18-0.11,0c-0.19,0.19-0.36,0.41-0.5,0.64c-0.53,0.88-1.25,1.63-2.1,2.2l-0.11,0.08l0,0c-0.38,0.23-0.62,0.63-0.64,1.07
	c-0.02,0.14-0.02,0.28,0,0.42c-0.05,0.35-0.05,0.72,0,1.07c0.06,0.1,0.11-0.54,0.34-0.49c0.14,0.12,0.29,0.21,0.46,0.27
	c0.21,0.08,0.26,0.22,0.23,0.35H5v0.1c-0.07,0.32,0,1.08-0.19,1.24s-0.6-0.1-0.72-0.19H4c-0.13-0.07-0.11,0.1,0,0.19
	c0.14,0.13,0.31,0.22,0.5,0.27c0.23,0.02,0.44-0.12,0.5-0.34c0.05-0.33,0.08-0.67,0.08-1c0.04-0.16,0.1-0.32,0.18-0.46
	c0.06-0.14,0.13-0.27,0.21-0.4c0.22-0.28,0.53-0.49,0.87-0.59c0.21-0.07,0.44-0.11,0.66-0.11c0.41,0.08,0.77,0.31,1,0.65
	c0.25,0.35,0.66,0.56,1.09,0.56c0.11-0.06,0.07-0.2,0.09-0.29c0.02-0.09,0.05-0.17,0.09-0.25l0.4-0.61L10,25
	c0.21-0.24,0.44-0.46,0.68-0.67c0.48-0.46,1.04-0.82,1.65-1.06c0.78-0.2,1.58-0.29,2.39-0.27c0.64,0.01,1.29-0.01,1.93-0.08
	c0.35,0,0.71-0.06,1.05-0.15c0.11,0,0.24-0.15,0.38-0.14s0.12,0.09,0.21,0.09s0.18-0.18,0.28-0.3c0.24-0.31,0.53-0.6,0.78-0.87
	c0.41-0.48,1.02-0.76,1.65-0.75c0.14,0,0.39,0.13,0.41,0s-0.15-0.16-0.23-0.24c-0.14-0.11-0.24-0.27-0.29-0.44
	c-0.03-0.21,0-0.42,0.08-0.61c0.16-0.09,0.34-0.15,0.53-0.16l1.13-0.26c0.28-0.06,0.56-0.14,0.83-0.24c0.14-0.09,0.3-0.13,0.46-0.12
	c0.17,0,0.36,0.43,0.46,0.59c0.31,0.46,0.52,0.98,0.62,1.52c0.07,0.35,0.07,0.72,0,1.07c-0.06,0.17-0.18,0.3-0.34,0.37
	c-0.39,0.08-0.55-0.26-0.88-0.2c0.01,0.12,0.09,0.23,0.2,0.28c0.1,0.07,0.2,0.14,0.31,0.19c0.44,0.18,1,0.19,1,0.73
	c0.01,0.19-0.02,0.37-0.11,0.54c-0.13,0.12-0.29,0.21-0.45,0.28c-0.12,0.07-0.27,0.29-0.48,0.24s-0.13-0.27-0.23-0.34
	s-0.34,0.29-0.46,0.49c-0.07,0.1-0.13,0.21-0.18,0.32c0,0.11-0.14,0.28-0.05,0.35s0.29-0.27,0.45-0.36
	c0.13-0.06,0.28-0.12,0.42-0.15c0.41-0.15,0.8-0.37,1.14-0.65c0.43-0.31,0.81-0.78,1.48-0.8c0.5,0.04,0.99,0.14,1.46,0.31
	c0.46,0.14,0.93,0.25,1.41,0.34c0.18,0.16,0.31,0.36,0.38,0.58c0.1,0.21,0.24,0.36,0.12,0.65s0.38,0.31,0.35,0.55
	s-0.35,0.11-0.57,0.06s-0.33-0.05-0.36-0.2s0.25,0,0.34,0c0.05-0.08,0.05-0.19,0-0.27c0-0.16-0.27-0.17-0.45-0.24
	c-0.15-0.07-0.29-0.15-0.41-0.26c-0.07-0.12-0.14-0.25-0.19-0.38c-0.16-0.25-0.5-0.24-0.81-0.39s-0.36-0.27-0.7-0.16
	c-0.09,0.05-0.17,0.11-0.25,0.18c-0.2,0.12-0.42,0.22-0.65,0.27c-0.29,0.01-0.57,0.05-0.85,0.12c-0.22,0.07-0.5,0.22-0.56,0.4
	s0,0.24,0,0.35c-0.09,0.2-0.22,0.37-0.39,0.5c-0.39,0.38-0.91,0.6-1.45,0.62c-0.33,0.02-0.66-0.06-0.95-0.23
	c-0.22-0.14-0.34-0.4-0.65-0.32c-0.06,0.19-0.02,0.39,0.1,0.55c0.06,0.09,0.25,0.22,0.23,0.35s-0.34,0.26-0.42,0.31
	c-0.48,0.27-1,0.48-1.53,0.62c-0.82,0.23-1.68,0.32-2.53,0.27c-1.29-0.08-2.47-0.76-3.2-1.83c-0.08-0.11-0.2-0.38-0.31-0.41
	c-0.22-0.01-0.45,0.02-0.66,0.1c-0.16,0.05-0.34,0.2-0.3,0.31s0.27,0,0.44,0s0.63,0.2,0.64,0.37s-0.15,0.12-0.13,0.2
	s0.34,0.16,0.51,0.27c0.65,0.45,0.87,1.3,0.52,2.01c-0.07,0.11-0.26,0.19-0.24,0.27s0.25,0,0.34,0.06c0.14,0.15,0.23,0.33,0.26,0.53
	c0.01,0.3-0.03,0.6-0.14,0.88c-0.07,0.22-0.26,0.62-0.19,0.81s0.34,0.19,0.56,0.21h0.62c0.62-0.06,1.25-0.06,1.87,0
	c0.26,0.1,0.31,0.42,0.47,0.65c0.09,0.13,0.2,0.25,0.31,0.36c0.11,0.13,0.21,0.27,0.3,0.36s0.38,0.25,0.28,0.43s-0.45,0-0.52,0
	s-0.24-0.72-0.56-0.93c-0.1-0.06-0.22-0.09-0.32-0.14s-0.15-0.18-0.24-0.19s-0.22,0.12-0.32,0.17c-0.25,0.03-0.5,0.03-0.75,0
	c-0.25,0.03-0.5,0.03-0.75,0c-0.08,0-0.14-0.12-0.22-0.14c-0.2-0.05-0.42-0.05-0.62,0c-0.08,0-0.09,0.22-0.2,0.25
	s-0.56-0.32-0.58-0.52s0.08-0.26,0.09-0.38c-0.03-0.26-0.09-0.51-0.18-0.76L14.2,30.5l0,0c-0.01-0.08-0.04-0.16-0.07-0.23l0,0
	c0.01-0.09-0.01-0.17-0.05-0.25c0-0.37,0.22-0.76-0.21-0.82h-0.63c-0.22-0.03-0.44-0.03-0.66,0c-0.11,0-0.15,0.16-0.22,0.19
	c-0.19,0.05-0.4,0.05-0.59,0H11.6c-0.09-0.02-0.18-0.06-0.26-0.1h-0.07L11.12,29c-0.46-0.41-0.55-1.23-0.88-1.79
	c-0.11-0.18-0.32-0.43-0.5-0.46c-0.25,0.02-0.5,0.06-0.75,0.13c-0.29,0-0.58-0.07-0.85-0.19c-0.28-0.15-0.53-0.44-0.81-0.61
	c-0.15-0.1-0.32-0.18-0.5-0.22c-0.32-0.01-0.63,0.07-0.91,0.23c-0.19,0.11-0.36,0.26-0.5,0.43c-0.26,0.4-0.1,1-0.15,1.55
	c0.02,0.37-0.23,0.71-0.59,0.8c-0.21,0.01-0.41-0.04-0.59-0.14c-0.11-0.06-0.11,0.17,0,0.22l0,0c0.16,0.08,0.33,0.11,0.5,0.1
	c0.16,0,0.46-0.25,0.43-0.14c-0.1,0.22-0.31,0.36-0.55,0.38c-0.14,0-0.28-0.04-0.41-0.1l0,0v0.23l0,0c0.37,0.07,0.76,0.01,1.1-0.15
	l0,0c0.11,0.16,0.18,0.34,0.28,0.51s0.27,0.31,0.26,0.51c-0.36,0.09-0.37-0.21-0.7-0.14c-0.24,0.06-0.4,0.3-0.34,0.55
	c0.03,0.13,0.12,0.24,0.24,0.3c0.36,0.12,0.45-0.21,0.85-0.12c0.02,0.13,0.06,0.26,0.12,0.38C5.59,31.88,5.3,32.49,5,33.12v0.06
	c0.03,0.05,0.05,0.1,0.06,0.15l0,0l0.29-0.58c0.08-0.17,0.23-0.62,0.41-0.45c-0.03,0.2-0.1,0.39-0.2,0.57l-0.38,0.78
	c-0.01,0.03-0.01,0.05,0,0.08c0.03,0.05,0.05,0.1,0.07,0.16l0,0c0.28-0.6,0.48-1.18,0.75-1.79c0.04-0.13,0.1-0.25,0.17-0.36
	c0.16-0.12,0.22,0.18,0.28,0.29c0.37,0.76,0.71,1.38,1.14,2.1c0.1,0.18,0.22,0.27,0.19,0.51c-0.1,0.3-0.29,0.57-0.55,0.76
	c-0.34,0.24-0.76,0.34-1.17,0.27v0.06l0.06,0.1h0.42c0.73-0.13,1.34-0.66,1.56-1.37c0.25-0.64,0.41-1.31,0.48-2
	c0.17-1.27,0.12-2.55-0.14-3.8c-0.06-0.29-0.28-0.89,0.07-0.92s0.3,0.24,0.37,0.48c0.36,1.28,0.47,2.62,0.33,3.94
	c-0.13,1.42-0.44,3-1.28,3.73c-0.19,0.17-0.39,0.31-0.61,0.43c-0.19,0.09-0.39,0.15-0.59,0.19c-0.18,0-0.18-0.09,0-0.13h0.09
	c0.25-0.06,0.49-0.17,0.7-0.32c0.21-0.19,0.4-0.41,0.55-0.65c0.09-0.17,0.15-0.26,0.08-0.28s-0.23,0.26-0.34,0.39
	C7.47,35.91,7,36.16,6.49,36.23H6.33v0.06l0,0c0.02,0.04,0.04,0.08,0.07,0.12l0,0l0.06,0.1c0.03,0.01,0.05,0.01,0.08,0
	c0.32-0.03,0.63-0.12,0.91-0.27C8.23,35.72,8.79,34.92,9,34c0.3,1.1,1.05,2.02,2.07,2.53c0.39,0.14,0.81,0.18,1.22,0.11
	c0.91-0.2,1.67-0.8,2.07-1.64c0.37-0.67,0.61-1.4,0.73-2.15c0.02-0.24,0.06-0.48,0.11-0.72c0.5-0.04,1-0.04,1.5,0
	c0.16,0,0.48,0,0.5,0.21c-0.02,0.09-0.06,0.18-0.11,0.26c-0.12,0.24-0.22,0.53-0.35,0.74s-0.66,0.45-0.61,1.06
	c0,0.22,0.18,0.4,0.17,0.6s-0.36,0.44-0.4,0.72s0,0.32,0,0.45s-0.34,0.36-0.24,0.59s0.4,0.08,0.63,0.08H18
	c0.22,0.02,0.45,0,0.66-0.07c0.03-0.06,0.03-0.14,0-0.2h0.91c0.25,0,0.74,0.08,0.76-0.14s-0.21-0.3-0.29-0.4
	c-0.1-0.13-0.22-0.24-0.35-0.33c-0.13-0.07-0.29-0.07-0.37-0.19c-0.1-0.12-0.15-0.27-0.17-0.43c0-0.15,0.11-0.28,0.16-0.45
	c0.06-0.19,0.1-0.39,0.1-0.59c0.06-0.17,0.37-0.1,0.51-0.19c0-0.3-0.29-0.61-0.3-0.91c0.02-0.16,0.08-0.32,0.17-0.46
	c0.05-0.14,0.12-0.27,0.19-0.4c0.12-0.21,0.37-0.61,0.59-0.59s0.23,0.25,0.33,0.39s0.31,0.08,0.33,0.21
	c0.02,0.13-0.09,0.15-0.11,0.26c-0.09,0.16-0.09,0.36,0,0.52c0.57,0.17,1.17,0.25,1.77,0.23c0.06,0,0-0.13,0.07-0.16
	c0.29,0.02,0.59,0.02,0.88,0c0.32,0,0.79,0,0.83-0.14s-0.11-0.27-0.19-0.4c-0.07-0.13-0.16-0.25-0.26-0.36
	c-0.12-0.11-0.31-0.14-0.4-0.26c-0.13-0.29-0.3-0.56-0.49-0.81c-0.23-0.21-0.19-0.08-0.3-0.16c0.44-0.06,0.89-0.08,1.33-0.05
	c0.18,0.05,0.31,0.2,0.48,0.25s0.21,0,0.29,0.06s0,0.26,0.06,0.38c0.04,0.19,0.15,0.36,0.32,0.47c0.23,0.03,0.45,0.03,0.68,0
	c0.35,0,0.76,0,0.82-0.12s-0.08-0.36-0.17-0.49c-0.08-0.14-0.17-0.28-0.29-0.39c-0.25-0.21-0.44-0.17-0.59-0.42
	c-0.03-0.09-0.07-0.17-0.12-0.25c-0.06-0.1-0.21-0.16-0.38-0.27c-0.07-0.06-0.14-0.12-0.22-0.16c-0.14-0.03-0.28-0.03-0.42,0
	c-0.24,0-0.49,0.06-0.76,0.06h-0.77c-0.51,0.06-1.03,0.06-1.54,0c-0.14,0-0.32-0.13-0.32-0.19s0.28-0.28,0.36-0.36
	c0.25-0.24,0.48-0.49,0.69-0.77c0.12-0.14,0.21-0.31,0.32-0.41s0.4-0.36,0.53-0.36s0.21,0.14,0.32,0.23l0.33,0.25
	c0.21,0.18,0.44,0.32,0.69,0.44l0.8,0.32c0.27,0.08,0.53,0.21,0.76,0.38c0.2,0.2,0.36,0.44,0.48,0.7c0.15,0.28,0.25,0.58,0.29,0.89
	c-0.01,0.26,0.05,0.51,0.17,0.74c0.18,0.17,0.42,0.26,0.66,0.24c0.17,0,0.33-0.16,0.52-0.22c0.3-0.03,0.59-0.03,0.89,0
	c0.26-0.02,0.53-0.02,0.79,0c0.25,0.04,0.49,0.12,0.71,0.25c0.19,0.1,0.58,0.19,0.62,0.35s-0.07,0.25-0.09,0.34
	c-0.04,0.15-0.04,0.31,0,0.46c0.06,0.09,0.28,0.15,0.45,0.2c0.26,0.1,0.53,0.15,0.8,0.15c0.19,0.01,0.39-0.04,0.55-0.14
	c0-0.08-0.11-0.43-0.19-0.58s-0.46-0.31-0.56-0.55s0-0.43-0.07-0.63c-0.15-0.45-0.61-0.47-1.19-0.5h-0.9l-0.88-0.06
	c-0.28,0.02-0.57-0.03-0.83-0.13c-0.24-0.19-0.42-0.44-0.52-0.73c-0.03-0.18-0.03-0.36,0-0.54c0.12-0.41,0.16-0.84,0.11-1.26
	c0-0.15-0.1-0.27-0.12-0.43c-0.01-0.19,0.01-0.39,0.08-0.57c0.05-0.14,0.14-0.41,0.29-0.4s0.14,0.13,0.2,0.19
	c0.1,0.06,0.19,0.13,0.27,0.21c0.06,0.1,0.11,0.21,0.14,0.33c0.02,0.12,0.06,0.23,0.12,0.33c0.12,0.16,0.44,0.17,0.38,0.38
	s-0.24,0.11-0.31,0.2c-0.09,0.18-0.09,0.38,0,0.56c0.11,0.11,0.24,0.21,0.38,0.28l0.4,0.25c0.3,0.12,0.57,0.3,0.79,0.54
	c0,0.45,0.08,0.77,0.64,0.71c0.33,0,0.74-0.09,1.17-0.1h1.23c0.15,0,0.26,0.1,0.37,0.11s0.41,0,0.44,0.13s-0.11,0.2-0.13,0.3
	c-0.01,0.22,0.09,0.43,0.26,0.57c0.14,0.04,0.29,0.07,0.44,0.08c0.3,0.03,0.6,0.03,0.9,0c0.4-0.06,0.13-0.31,0-0.51
	c-0.07-0.13-0.14-0.25-0.23-0.36c-0.09-0.1-0.34-0.19-0.43-0.33s-0.06-0.18-0.1-0.25c-0.07-0.16-0.18-0.3-0.32-0.41
	c-0.43-0.19-0.92-0.23-1.38-0.13c-0.43,0.07-0.87,0.09-1.3,0.06c-0.35-0.12-0.63-0.39-0.75-0.74c0-0.24,0.19-0.45,0.21-0.68
	s-0.22-0.85,0.1-1l0.28-0.08c0.33-0.1,0.66-0.34,1-0.27s0.07,0.51,0.2,0.77c0,0.08,0.18,0.17,0.28,0.24s0.27,0.13,0.26,0.27
	s-0.15,0.11-0.2,0.19c-0.09,0.14-0.14,0.31-0.12,0.48c0.2,0.2,0.44,0.35,0.71,0.45c0.26,0.1,0.71,0.29,0.91,0.2s0.06-0.46,0-0.67
	c-0.04-0.12-0.09-0.24-0.16-0.35c-0.07-0.11-0.13-0.23-0.16-0.35v-0.46c0-0.14-0.25-0.25-0.35-0.4c-0.06-0.11-0.11-0.22-0.15-0.34
	c-0.12-0.23-0.36-0.38-0.4-0.59c0.6,0.05,1.65,0,1.79,0.07s0.24,0.38,0.3,0.62s0.35,0.14,0.32,0.3s-0.16,0.08-0.25,0.15
	c-0.05,0.14-0.05,0.29,0,0.43c0.07,0.16,0.48,0.34,0.61,0.42s0.53,0.38,0.68,0.32s0.12-0.2,0.13-0.35c0.03-0.45-0.01-0.9-0.13-1.33
	c-0.11-0.17-0.25-0.32-0.42-0.44c-0.15-0.16-0.29-0.29-0.4-0.43c0.6-0.26,1.12-0.89,2-0.62c-0.24,0.29,0,0.46,0.23,0.59
	c0.41,0.24,0.86,0.39,1.33,0.44c0.16-0.07,0-0.67,0-1c0.29-0.1,0.51-0.29,0.84-0.25c0.27,0.04,0.52,0.17,0.71,0.37
	c0.08,0.1,0.1,0.24,0.2,0.34s0.41,0.17,0.46,0.36c-0.14,0.15-0.19,0.37-0.12,0.56c0.35,0.25,0.78,0.38,1.21,0.37
	c0.05-0.34,0.01-0.69-0.13-1c-0.07-0.12-0.2-0.18-0.26-0.31c-0.06-0.24-0.16-0.46-0.29-0.67c-0.18-0.13-0.39-0.19-0.61-0.2
	c-0.2-0.05-0.4-0.12-0.58-0.23c-0.18-0.14-0.37-0.28-0.57-0.39c-0.59-0.2-0.62-0.05-0.67-0.16s0.17-0.22,0.28-0.31
	s0.19-0.22,0.3-0.3c0.14-0.07,0.29-0.12,0.44-0.16c0.14-0.07,0.29-0.12,0.45-0.16c0.44,0,0.62,0.39,0.92,0.47s0.57-0.14,0.7-0.06
	s0,0.6,0.25,0.74c0.22,0.08,0.45,0.1,0.68,0.07c0.19,0,0.5,0,0.53-0.18s-0.11-0.34-0.18-0.46 M21,14.77c0.12,0,0.23,0.08,0.27,0.19
	c0,0.24-0.25,0.37-0.34,0.52c-0.21,0.35-0.13,0.77-0.26,1.24c-0.06,0.21-0.24,0.41-0.26,0.61c0.01,0.25,0.05,0.51,0.12,0.75
	c0,0.27,0.13,0.53,0.15,0.73s0,0.42-0.29,0.43c-0.08-0.23-0.15-0.46-0.2-0.7c-0.12-0.34-0.18-0.69-0.19-1.05
	c0.05-0.5,0.15-1,0.29-1.49c0.06-0.22,0.14-0.44,0.23-0.65c0.08-0.18,0.25-0.55,0.44-0.56 M20.37,15.01l-0.06,0.16l0,0
	c-0.22,0.47-0.37,0.97-0.44,1.49v1.05c0.01,0.51,0.05,1.02,0.13,1.52c-0.13,0.15-0.36,0.16-0.56,0.21
	c-1.44,0.37-2.91,0.65-4.39,0.84c-1.38,0.08-2.77,0.02-4.14-0.2L10.2,20H9.81c0-0.05,0-0.07,0.06-0.15
	c0.31-0.36,0.59-0.76,0.83-1.17c0.17-0.32,0.31-0.66,0.44-1c0.06-0.07,0.13-0.13,0.21-0.17c0.37-0.17,0.78-0.24,1.19-0.21
	c0.81,0,1-0.17,1.44-0.15c0.54,0.09,1.1,0,1.59-0.25c0.62-0.41,1.29-0.73,2-0.94c0.41,0,0.7,0.27,1,0.26
	c0.19-0.03,0.38-0.08,0.55-0.16c0.08,0,0.21,0,0.28-0.25s0.12-0.34,0.07-0.45l0.91-0.25 M18.9,20.11l0.86-0.15c0,0,0.07,0,0.06,0.09
	s-0.23,0.11-0.34,0.13c-1.61,0.31-3.24,0.52-4.88,0.63h-0.87c-0.3,0.02-0.59-0.01-0.88-0.09c0.61-0.06,1.23-0.08,1.84-0.07
	c0.58-0.01,1.17-0.07,1.74-0.18c0.84-0.12,1.67-0.25,2.47-0.39 M17.29,20.28c0.09-0.04,0.18-0.07,0.27-0.1
	c0.48-0.12,1-0.23,1.52-0.34c0.23-0.06,0.46-0.11,0.69-0.14c0.01,0.05,0.01,0.09,0,0.14C18.95,20.03,18.12,20.18,17.29,20.28
	 M9.85,20.42L10,20.4h0.68c0.14,0,0.41,0,0.4,0.07c-0.39,0.09-0.8,0.12-1.2,0.08H9.75c0-0.05,0.08-0.06,0.1-0.07 M10.36,20.24h-0.28
	c-0.01-0.05-0.04-0.09-0.07-0.12c0.5,0,0.99,0.06,1.47,0.18c0,0.09-0.14,0.07-0.21,0.06c-0.29,0-0.57-0.07-0.91-0.09 M9.63,20.89
	c0.21,0,0.53,0.06,0.76,0.08c0.47,0,0.93,0.03,1.39,0.11c0,0-0.24,0.07-0.36,0.08s-0.33,0-0.5,0l-0.8-0.09
	C10,21.06,9.87,21.03,9.75,21H9.59v-0.06 M11.59,15.94H12c0.13,0.02,0.26,0.05,0.39,0.1c0.1,0.05,0.22,0.05,0.32,0
	c0.25-0.05,0.51-0.05,0.76,0c0.2,0.04,0.4,0.06,0.6,0.06c0.42-0.07,0.83-0.17,1.23-0.3c0.3-0.09,0.66-0.14,1-0.2s0.4-0.1,0.6-0.16
	c0.35-0.18,0.72-0.32,1.1-0.44h0.68c0.13,0.02,0.25,0.05,0.37,0.1c0,0,0.11,0.1,0,0.17c-0.09,0.05-0.19,0.08-0.3,0.09h-0.13
	c-0.1,0.09-0.21,0.18-0.32,0.25c-0.07,0.03-0.14,0.03-0.21,0l-0.33-0.18h-0.08c-0.25,0.07-0.5,0.15-0.74,0.25
	c-0.17,0.09-0.45,0.28-0.7,0.43c-0.46,0.31-1,0.5-1.55,0.56c-0.23,0.02-0.45-0.04-0.63-0.18c-0.07-0.05-0.16-0.05-0.23,0
	c-0.47,0.17-0.98,0.23-1.48,0.2c-0.48,0-0.27-0.34-0.43-0.33s-0.59,0.36-0.67,0.4c-0.07,0.06-0.18,0.06-0.25,0
	c-0.05-0.08-0.08-0.17-0.08-0.26v-0.13l0,0c0.09-0.01,0.17-0.04,0.25-0.09c0-0.06,0.13-0.12,0.15-0.17c0.02-0.04,0.02-0.09,0-0.13
	v-0.07c0.05-0.08,0.15-0.12,0.24-0.11 M10.86,15c0.12,0.05,0.12-0.12,0.18-0.18c0.09,0.03,0.17,0.09,0.24,0.15
	c0.07,0.1,0.16,0.22,0.1,0.34s-0.14,0-0.15,0.1c-0.02,0.1-0.07,0.2-0.13,0.29c0,0.09,0.16,0.05,0.17,0.13c0.04,0.1,0.04,0.2,0,0.3
	c-0.13,0.03-0.27,0.03-0.4,0c-0.13-0.01-0.26-0.03-0.39-0.06c-0.05-0.01-0.1,0.02-0.11,0.07c0,0,0,0,0,0l0,0v0.17l0,0
	c-0.01,0.03-0.01,0.05,0,0.08c-0.02,0.08-0.05,0.16-0.09,0.23h-0.14c-0.03-0.01-0.05-0.01-0.08,0c0,0.06-0.02,0.12-0.06,0.17l0,0
	c-0.07,0.01-0.15-0.01-0.21-0.05c-0.09-0.03-0.17-0.07-0.24-0.13l0,0l-0.1-0.15C9.31,16.29,9.16,16.14,9,16v-0.13
	c0.02-0.16,0.13-0.3,0.28-0.36c0.32-0.07,0.65-0.01,0.92,0.18l0,0v-0.32c-0.11-0.35-0.02-0.74,0.24-1c0.09-0.11,0.21-0.18,0.34-0.22
	c0.12-0.05,0.25-0.02,0.35,0.06c0.07,0.06,0.11,0.16,0.1,0.25l0,0c0,0.05-0.21,0-0.31,0.08c-0.11,0.08-0.2,0.17-0.28,0.27
	c0.13,0.03,0.26,0.1,0.36,0.19 M8.57,15c-0.09-0.05-0.14-0.14-0.16-0.24c-0.11-0.39,0.16-0.68,0.44-0.95l0.28-0.2
	c0.44-0.18,0.91-0.25,1.38-0.19c0.23-0.04,0.46,0.04,0.61,0.22c0.14,0.22-0.17,0.13-0.27,0.16c-0.43,0.18-0.81,0.46-1.12,0.81
	C9.44,14.94,9,15.09,8.57,15 M8.51,16.09C8.58,16.04,8.66,16,8.75,16c0.05,0,0.11,0.02,0.15,0.05c0,0,0.09,0,0.23,0.29l0.08,0.17
	l0.08,0.16c0.07,0.11,0.17,0.19,0.29,0.24l0.15,0.07H10c0.15-0.01,0.3-0.08,0.41-0.19c0.05-0.04,0.09-0.09,0.13-0.14
	c0.06-0.07,0.1-0.16,0.11-0.25c0-0.06,0.07-0.07,0.11-0.07l0,0c0,0,0.07,0.26,0.08,0.31c0.08,0.31,0.08,0.63,0,0.94
	c-0.14,0.53-0.4,1.03-0.75,1.45c-0.16,0.17-0.38,0.28-0.25,0c0.04-0.08,0.07-0.16,0.1-0.24c0.04-0.11,0.07-0.22,0.09-0.34
	c0-0.11-0.06-0.08-0.1,0c-0.12,0.34-0.32,0.65-0.59,0.89c-0.11,0.09-0.23,0.15-0.37,0.18H8.7c-0.1,0.03-0.21,0.05-0.32,0.06
	c0,0-0.05,0,0-0.08s0.15-0.15,0.27-0.3c0.1-0.13,0.2-0.27,0.28-0.41c0.18-0.29,0.32-0.6,0.42-0.92c0-0.13,0-0.13,0,0
	c-0.16,0.32-0.34,0.64-0.55,0.93c-0.2,0.26-0.42,0.5-0.66,0.72c-0.11,0.06-0.23,0.06-0.34,0c-0.2-0.07-0.4-0.16-0.59-0.27
	c0,0-0.07-0.09,0-0.13c0.63-0.6,1.18-1.27,1.66-2c0.06-0.14,0.08-0.29,0.06-0.44c-0.02-0.19-0.09-0.36-0.22-0.5L8.5,16.04V16
	 M7.7,20.33c-0.32-0.07-0.56-0.18-0.86-0.22S6,20,5.9,20c-0.13-0.01-0.25-0.05-0.36-0.11l-0.26-0.17c-0.06,0-0.25-0.14-0.2-0.3
	c0.06-0.16,0.12-0.31,0.2-0.46c0.07-0.15,0.14-0.3,0.22-0.45s0.64-0.5,0.71-0.63c0.03-0.21,0.09-0.41,0.17-0.6
	c0.23-0.61,0.82-1.01,1.47-1c0.24,0,0.83,0.08,0.68,0.68c-0.02,0.1-0.05,0.2-0.1,0.29c-0.12,0.21-0.26,0.4-0.43,0.57
	c-0.19,0.21-0.47,0.34-0.76,0.33c-0.06,0-0.1,0-0.12,0.08c-0.09,0.25-0.25,0.47-0.46,0.63c-0.13,0.11-0.29,0.2-0.45,0.26
	c0.14,0.05,0.28,0.1,0.42,0.17c0.27,0.13,0.72,0.37,0.91,0.44c0.19,0.09,0.39,0.14,0.59,0.17c0.2-0.02,0.4-0.07,0.6-0.13
	c0.07-0.01,0.15-0.01,0.22,0H9.2c0.06,0.01,0.11,0.04,0.14,0.09c0.05,0.07,0.12,0.12,0.2,0.16l0.17,0.05l0.1,0.06
	c0.02,0.02,0.02,0.06,0,0.08l0,0c-0.05,0.02-0.1,0.02-0.15,0H9.24c-0.1,0.11-0.26,0.14-0.4,0.09c-0.29-0.06-0.41-0.14-0.51-0.14
	c-0.2,0.04-0.42,0.04-0.62,0 M4.86,25.9c-0.48-0.08-0.83-0.51-0.79-1c0.03-0.5,0.32-0.94,0.76-1.17c0.29-0.1,0.6-0.13,0.9-0.1
	c0.34,0.03,0.67,0.09,1,0.18c0.21,0.03,0.41,0.03,0.62,0c0.18-0.02,0.35-0.05,0.52-0.1C7.93,23.7,8,23.73,8.03,23.78
	c-0.01,0.07-0.05,0.13-0.11,0.17c-0.15,0.11-0.34,0.17-0.53,0.17c-0.22,0.03-0.44,0.03-0.66,0c-0.19,0-0.84-0.19-1-0.21
	C5.48,23.87,5.23,23.9,5,24c-0.33,0.21-0.56,0.56-0.61,0.95c0,0.22,0.09,0.42,0.26,0.56c0.07,0.08,0.17,0.12,0.28,0.13
	c0.08-0.02,0.17,0,0.23,0.06c0.1,0.07,0,0.16,0,0.18s-0.08,0.06-0.27,0 M6,25.21H5.88c-0.16,0.07-0.32,0.13-0.48,0.18
	c-0.17,0.03-0.34-0.01-0.48-0.11c-0.12-0.07-0.11-0.32-0.08-0.46c0.07-0.31,0.55-0.92,0.91-0.86s0.41,0.09,0.9,0.21h0.11
	c0.13,0,0.79,0.23,0.38,0.56c-0.16,0.09-0.34,0.17-0.52,0.22c-0.23,0.03-0.46,0.09-0.67,0.19 M18.68,21.57
	c-0.33,0.45-0.81,0.78-1.35,0.92c-0.48,0.08-1,0.1-1.61,0.15s-1.15,0.07-1.69,0.12c-0.56,0.01-1.12,0.06-1.67,0.17
	c-0.25,0.07-0.49,0.18-0.72,0.31l-0.43,0.3c-0.16,0-0.22-0.42-0.13-0.67c0.1-0.18,0.14-0.39,0.12-0.6
	c-0.02-0.21-0.08-0.42-0.18-0.61c0-0.08,0-0.16-0.09-0.18c-0.06-0.03-0.13,0-0.16,0.06c0,0,0,0,0,0l0,0c-0.03,0.07-0.03,0.15,0,0.22
	c0.05,0.18,0.08,0.36,0.09,0.55c0,0.21-0.06,0.41-0.17,0.58c-0.02,0.04-0.02,0.1,0,0.14v0.62c0,0.1,0,0.26-0.07,0.32l0,0l-0.3,0.27
	l0,0c-0.08,0-0.16-0.25-0.16-0.34c0.01-0.17,0.01-0.35,0-0.52v-0.26c0-0.07,0-0.19-0.09-0.1C9.99,23.2,9.97,23.4,10,23.59v0.66
	c0.03,0.14,0.01,0.29-0.07,0.42l0,0c-0.01,0.02-0.04,0.05-0.06,0.06c-0.06,0.07-0.12,0.14-0.17,0.22c-0.08,0.06-0.17,0.1-0.18-0.07
	c0-0.29-0.02-0.58-0.07-0.86c0-0.22,0-0.43,0-0.65s0-0.27-0.11-0.26s-0.07,0.23-0.07,0.36c0.03,0.52,0.03,1.05,0,1.57
	c-0.06,0.38,0,0.58-0.16,0.69s-0.34,0.09-0.34-0.15c0.02-0.36,0.02-0.71,0-1.07v-1.32c0,0-0.09-0.11-0.12,0
	c-0.01,0.09-0.01,0.17,0,0.26c0,0.12,0.08,0.95,0.08,1.1c0.01,0.31-0.01,0.63-0.05,0.94c0,0.09-0.07,0.13-0.16,0.1
	s-0.13-0.07-0.14-0.22s0-0.56,0-0.87V22H8.3c0.09-0.05,0.18-0.07,0.28-0.08c0.08,0,0.2,0,0.22,0.14c0.08,0.19,0.11,0.4,0.08,0.6
	C8.81,22.85,8.66,22.94,8.66,23s0.1,0.08,0.18,0c0.14-0.14,0.24-0.31,0.29-0.5c0-0.16-0.05-0.31-0.13-0.45
	c-0.11-0.16-0.21-0.19-0.21-0.25s0.05-0.37,0.15-0.41c0.09-0.03,0.18-0.03,0.27,0c0.26,0.08,0.43,0.33,0.42,0.6
	c-0.03,0.25-0.09,0.5-0.19,0.73c-0.03,0.09-0.09,0.18-0.16,0.24v0.15h0.05c0.19-0.13,0.33-0.33,0.39-0.55
	c0.05-0.21,0.07-0.42,0.06-0.63c-0.01-0.14-0.03-0.28-0.08-0.41c-0.04-0.07-0.09-0.14-0.16-0.18c0.42,0.09,0.84,0.15,1.27,0.17H11
	c0.65,0,1.47-0.25,2.1-0.3s1.43-0.09,2.13-0.19c1-0.14,2.07-0.24,3.1-0.43c0.41-0.07,1.23-0.31,1.2-0.18
	c-0.03,0.11-0.09,0.21-0.17,0.3c-0.24,0.32-0.46,0.68-0.72,1 M19.41,21.12c-0.08-0.07,0-0.19,0-0.26c0.1-0.11,0.22-0.21,0.35-0.29
	c0,0,0.1,0,0.09,0.06s-0.39,0.56-0.47,0.49 M20.38,20.02c-0.06,0-0.08-0.15,0-0.19s0.22-0.08,0.24,0s-0.14,0.24-0.2,0.21
	 M22.54,19.04c-2.56,0.69-5.17,1.22-7.8,1.57c-0.43,0.08-0.86,0.1-1.29,0.07c0-0.05,0.19-0.05,0.27-0.07
	c0.73-0.1,1.48-0.18,2.17-0.3s1.61-0.29,2.41-0.45c1.58-0.31,3.1-0.73,4.56-1.12c0,0,0.19-0.06,0.19,0.08S22.66,19.01,22.54,19.04
	 M26.12,15.04c0.22-0.17,0.59-0.51,0.67-0.48s0.11,0.28,0,0.36s-0.15,0-0.21,0.07c-0.34,0.13-0.57,0.82-0.76,0.72
	s0.15-0.49,0.28-0.67 M24.24,15.69c0-0.21,0.44-0.23,0.72-0.19c0.31,0.1,0.61,0.25,0.86,0.46l0.42,0.23
	c0.21,0.05,0.42,0.13,0.61,0.24c0.12,0.11,0.23,0.24,0.31,0.38c0.07,0.35-0.34,0.32-0.5,0.17s-0.09-0.23-0.2-0.27
	c-0.14-0.06-0.31-0.06-0.45,0c-0.12,0.07,0.15,0.16,0.17,0.29c0.01,0.1,0.01,0.19,0,0.29v0.19c0,0.05-0.24,0.3-0.38,0.22
	s0.14-0.23,0.13-0.4c-0.24,0.03-0.49,0.03-0.73,0c-0.27-0.1-0.5-0.28-0.66-0.52c-0.11-0.13-0.23-0.23-0.22-0.41s0.29,0,0.42-0.05
	c0.06-0.24-0.19-0.24-0.31-0.32c-0.12-0.07-0.19-0.21-0.18-0.35 M24.06,18.23c0.04-0.12,0.11-0.23,0.2-0.31
	c0.28-0.19,1.23-0.28,1.3-0.13s-0.54,0.45-0.92,0.51C24.5,18.3,24.1,18.37,24.06,18.23 M14.46,33c0,0.11-0.12,0.59-0.23,0.59
	s-0.18-0.26-0.23-0.36s-0.18-0.27-0.24-0.41c0.11,0,0.17,0.07,0.29,0.08h0.35l0,0l0,0 M5.76,29.1L5.76,29.1
	c0.01-0.04,0.03-0.07,0.06-0.1c0-0.07,0.1-0.13,0.14-0.2c0.09-0.11,0.16-0.23,0.22-0.36c0.1-0.31,0.17-0.62,0.23-0.94l0,0v-0.12
	c0-0.05,0.07-0.13,0.12-0.2l0,0c0.04-0.05,0.1-0.08,0.16-0.1c0.06-0.01,0.13,0.01,0.17,0.06c0.09,0.17,0.12,0.35,0.11,0.54v0.16H7
	v0.29c-0.07,0.32-0.18,0.64-0.33,0.93c-0.08,0.21-0.15,0.77-0.37,0.87s-0.35-0.14-0.45-0.32c-0.1-0.12-0.16-0.27-0.19-0.42v-0.06
	 M7.21,27.38c-0.17-0.05-0.23-0.6,0.05-0.53S7.26,27.29,7.21,27.38 M6.68,29.57c0.14-0.5,0.32-0.98,0.54-1.45
	c0.07-0.15,0.1-0.42,0.32-0.39s0,0.54-0.12,0.79c-0.12,0.51-0.28,1-0.49,1.48c0,0.06-0.12,0.28-0.25,0.19s0.05-0.46,0.1-0.63
	 M9.78,27.97c0.03-0.03,0.06-0.06,0.1-0.08C9.93,27.92,9.97,27.96,10,28c0,0-0.33,0.63-0.41,0.62s0.14-0.47,0.23-0.66 M11,29.32
	h0.05l0.09,0.05l0,0l0.2,0.09c0,0.06,0.05,0.1,0.07,0.15l0.15,0.38c0.1,0.17,0.16,0.36,0.17,0.55c-0.16,0.04-0.34,0.04-0.5,0
	c-0.49,0.05-0.97,0.05-1.46,0c0.02-0.63,0.24-1.23,0.62-1.73l0.24,0.17c0.1,0.08,0.21,0.16,0.33,0.23 M11.71,29.55l0.23,0.08
	l0.09,0.18v0.12l0,0c0.06,0.15,0.1,0.3,0.1,0.46c-0.21,0.06-0.3-0.19-0.38-0.34l-0.13-0.27c0-0.1-0.08-0.2-0.11-0.29l0.15,0.06
	 M12.91,30.24h0.15c-0.03,0.18-0.11,0.35-0.23,0.49c-0.06,0.01-0.12-0.01-0.16-0.06v-0.08l0,0 M13.2,30.28L13.2,30.28l0.09-0.05l0,0
	c0.18,0.36,0.25,0.75,0.22,1.15l0,0c-0.05-0.02-0.08-0.06-0.11-0.1c-0.05-0.09-0.09-0.18-0.12-0.27c-0.08-0.2-0.12-0.41-0.13-0.62
	v-0.11 M13.72,32.76c-0.1,0.1-0.36-0.08-0.37-0.21c-0.01-0.09,0.05-0.17,0.14-0.19h0.07C13.66,32.36,13.82,32.65,13.72,32.76
	 M13.24,31.45c0.05,0.14,0.08,0.28,0.07,0.43c0,0.18-0.17,0.35-0.18,0.52c-0.07-0.09-0.12-0.2-0.15-0.31
	c0.03-0.1,0.06-0.19,0.1-0.28c0.06-0.17,0.09-0.35,0.1-0.53C13.19,31.34,13.21,31.4,13.24,31.45 M12.89,31.45
	c-0.16,0.02-0.32,0.02-0.48,0c-0.07-0.16-0.11-0.33-0.1-0.5c0.11-0.1,0.36,0,0.53,0c0.09,0.17,0.11,0.36,0.05,0.54 M13,30L13,30
	v0.07l0,0v0.07l0,0v0.07c-0.1,0.14-0.27,0.19-0.43,0.13c-0.13,0-0.17-0.2-0.22-0.35l0,0v-0.06l0,0v-0.06l0,0
	c0.29,0.02,0.58,0.06,0.87,0.12v0.08 M12.58,31c-0.17,0.12-0.32,0-0.51-0.06c-0.38-0.02-0.77-0.02-1.15,0H9.81v-0.12
	c0.55-0.04,1.09-0.04,1.64,0c0.31,0,0.61-0.07,0.92-0.08c0.12,0,0.22,0.1,0.22,0.22c0,0.02,0,0.05,0,0.07 M9.8,28.83
	c0.06-0.21,0.15-0.41,0.26-0.6c0.11,0.17,0.2,0.35,0.31,0.5c-0.09,0.16-0.25,0.49-0.38,0.68C9.92,29.5,9.8,29.52,9.7,29.46v-0.05
	c-0.01-0.22,0.04-0.43,0.15-0.62 M9.85,31.2L9.85,31.2c0.74-0.01,1.49,0.02,2.23,0.09c0.03,0.07,0.05,0.14,0.07,0.21
	c0,0.08,0.09,0.16,0.09,0.22c-0.05,0.14-0.11,0.27-0.2,0.39c-0.41,0.78-0.8,1.48-1.25,2.26c-0.06,0.13-0.15,0.24-0.25,0.34
	c-0.12,0-0.22-0.3-0.27-0.4s-0.12-0.35-0.17-0.49c-0.14-0.32-0.24-0.66-0.3-1c-0.07-0.51-0.07-1.03,0-1.54 M10.8,34.69
	c0.38-0.69,0.78-1.39,1.16-2.07c0-0.09,0.12-0.34,0.21-0.38c0.06-0.03,0.13,0,0.16,0.06c0,0,0,0,0,0l0,0
	c-0.04,0.13-0.1,0.26-0.17,0.38c-0.36,0.72-0.74,1.37-1.15,2.08c0,0.08-0.13,0.32-0.26,0.28s0-0.31,0-0.35 M11.09,34.83
	c0.3-0.69,0.75-1.27,1.08-1.92c0.14-0.29,0.24-0.75,0.47-0.88s0.23,0.11,0.3,0.26c0.26,0.53,0.41,0.91,0.69,1.46
	c0.09,0.18,0.27,0.4,0.26,0.61c-0.06,0.29-0.18,0.55-0.37,0.78c-0.23,0.42-0.63,0.71-1.1,0.79c-0.4,0.06-0.82-0.01-1.18-0.19
	c-0.18-0.1-0.29-0.28-0.32-0.48C10.95,35.11,11.01,34.96,11.09,34.83 M13.27,32.6c-0.05-0.11-0.26-0.56,0-0.53s0.21,0.34,0.26,0.43
	l0.45,0.9c0.1,0.22,0.28,0.44,0.17,0.69c-0.13,0-0.17-0.13-0.23-0.22c-0.25-0.4-0.46-0.83-0.63-1.27 M9.59,27.6
	c-0.07,0.11-0.22,0.15-0.34,0.08l0,0c-0.06-0.38,0.49-0.39,0.37-0.06 M6,27.17c0.12-0.27,0.31-0.51,0.55-0.69
	c0.16-0.07,0.33-0.1,0.5-0.09c0.69,0.06,1.13,0.64,1.82,0.68c0.17-0.01,0.35-0.01,0.52,0c0,0.12-0.23,0.16-0.36,0.17
	c-0.31,0.03-0.63-0.03-0.91-0.17c-0.39-0.21-0.55-0.49-1.15-0.41c-0.23,0.08-0.43,0.21-0.59,0.39c-0.06,0.1-0.12,0.22-0.16,0.33
	c0,0.08-0.09,0.31-0.19,0.29s-0.08-0.36,0-0.48 M5.39,28.41c0.06-0.31,0.08-0.63,0.07-0.95c-0.01-0.02-0.01-0.04,0-0.06
	c0.18,0,0.2,0.53,0.17,0.78c-0.03,0.23-0.13,0.44-0.28,0.61c-0.21-0.06,0-0.22,0-0.38 M5.58,29.8c-0.08-0.15-0.14-0.24-0.2-0.38
	c0.08-0.06,0.16-0.1,0.25-0.13c0.06,0.12,0.12,0.24,0.2,0.35c0.07,0.11,0.2,0.25,0.2,0.35c0,0.09-0.07,0.16-0.16,0.16
	c-0.01,0-0.01,0-0.02,0l0,0c-0.09,0-0.19-0.26-0.25-0.35 M6.14,31c-0.23,0.07-0.45-0.05-0.67,0s-0.16,0.14-0.28,0.14
	c-0.34,0-0.32-0.56,0-0.59c0.12,0,0.19,0.11,0.3,0.13s0.72-0.13,0.73,0.16C6.22,30.92,6.22,30.93,6.14,31 M6.72,31.4
	c-0.11,0.04-0.23,0.04-0.34,0c-0.19-0.15,0-0.45,0-0.71s-0.23-0.21-0.2-0.36s0.44,0.06,0.54,0.15s0.19,0.25,0.31,0.29
	c0.11,0.02,0.22,0.02,0.33,0H8c0.2-0.03,0.41-0.01,0.6,0.05c0.03,0.05,0.03,0.11,0,0.16c-0.33,0.04-0.67,0.04-1,0
	c-0.17-0.03-0.35-0.03-0.52,0c-0.14,0.05-0.18,0.3-0.36,0.36 M8.09,34.34c-0.14,0-0.27-0.36-0.32-0.46c-0.2-0.34-0.36-0.66-0.55-1
	C7.14,32.73,6.96,32.46,7,32.33s0.33,0.3,0.41,0.44c0.2,0.33,0.39,0.71,0.6,1c0.07,0.11,0.42,0.56,0.08,0.55 M8.69,32
	c-0.03,0.42-0.08,0.84-0.16,1.25c0,0.22-0.06,0.49-0.21,0.5S8,33.43,7.9,33.28c-0.24-0.4-0.44-0.71-0.66-1.12
	C7.1,31.96,7.01,31.73,7,31.49c0.07-0.29,0.52-0.25,0.86-0.27c0.34-0.02,0.7-0.06,0.8,0.12c0.03,0.22,0.03,0.44,0,0.66 M8.5,29.09
	c0.04,0.23,0.09,0.46,0.15,0.69c0.06,0.24,0.06,0.5,0,0.74c-0.09,0.07-0.21,0.1-0.32,0.11c-0.37,0.01-0.74-0.01-1.11-0.06
	c-0.26-0.25-0.09-0.66,0-1s0.3-0.74,0.46-1.16c0.09-0.24,0.16-0.58,0.33-0.55c0.17,0.03,0.24,0.38,0.3,0.55
	c0.07,0.22,0.12,0.44,0.16,0.67 M15.11,33.67c-0.11,0.62-0.34,1.21-0.7,1.73c-0.36,0.45-0.8,0.84-1.29,1.14l-0.28,0.13
	c-0.07,0-0.25,0.13-0.28,0s0.24-0.19,0.35-0.27c0.25-0.16,0.49-0.34,0.71-0.54c0.1-0.08,0.29-0.27,0.24-0.33s-0.22,0.1-0.29,0.17
	c-0.32,0.36-0.76,0.59-1.24,0.65c-0.26,0.04-0.53,0.01-0.78-0.08c0,0-0.35-0.14-0.4-0.05s0.32,0.17,0.33,0.33s-0.35,0-0.45-0.11
	c-0.74-0.46-1.3-1.17-1.57-2c-0.05-0.12-0.15-0.38-0.07-0.43s0.11,0.14,0.15,0.22c0.22,0.38,0.48,0.79,0.72,1.17
	c0.1,0.14,0.31,0.43,0.37,0.38s-0.27-0.46-0.41-0.7s-0.42-0.66-0.36-0.74s0.19,0.21,0.25,0.33c0.27,0.56,0.7,1.02,1.24,1.33
	c0.24,0.14,0.52,0.23,0.8,0.24c0.4,0,0.79-0.15,1.09-0.41c0.69-0.62,1.18-1.43,1.41-2.32c0.07-0.2,0.14-0.58,0.33-0.6
	s0.21,0.51,0.16,0.8 M16.76,34.47c0-0.12,0.2-0.25,0.27-0.34c0.26-0.31,0.47-0.85,0.69-1.12c0,0,0.1-0.1,0.14-0.1
	s0.18,0.06,0.2,0.14s-0.09,0.28-0.13,0.42s0,0.24-0.11,0.34s-0.53,0.35-0.56,0.63s0.09,0.25,0.06,0.38C17.3,34.92,17.21,35,17.1,35
	C16.94,35,16.73,34.66,16.76,34.47 M16.76,36.59c-0.08-0.13,0.23-0.55,0.5-0.53c0.14,0.04,0.26,0.14,0.32,0.27
	C17.58,36.62,16.85,36.71,16.76,36.59 M18.1,36.15c-0.27,0-0.5-0.17-0.59-0.42c0.04-0.19,0.18-0.35,0.37-0.41
	C18.09,35.32,18.31,35.98,18.1,36.15 M18.1,35.09c-0.24-0.07-0.51-0.34-0.43-0.6c0.1-0.14,0.21-0.27,0.33-0.39l0,0
	c0.13,0.04,0.25,0.09,0.37,0.15c0,0.42-0.2,0.58-0.3,0.88 M19.56,36.27c0.08,0.19-0.17,0.26-0.39,0.21s-0.29-0.11-0.29-0.23l0,0
	c0.06-0.14,0.6-0.13,0.67,0.07 M18.89,35.43c-0.09,0.11-0.17,0.26-0.36,0.16c-0.18-0.43,0.05-0.83,0.1-1.22l0.57,0.07
	C19.23,34.8,19.12,35.16,18.89,35.43 M25.65,31.62c0-0.14,0.31-0.23,0.51-0.17c0.09,0.01,0.18,0.06,0.23,0.14
	c0.17,0.28-0.66,0.36-0.74,0.12C25.64,31.68,25.64,31.65,25.65,31.62 M33.01,30.62h0.87c0.07,0,0.59-0.08,0.56,0.12
	s-0.64,0.21-0.81,0.23c-0.17,0.01-0.34,0.01-0.51,0c-0.23,0.03-0.47,0.03-0.7,0c-0.09-0.01-0.16-0.07-0.17-0.16
	c0-0.08,0.57-0.14,0.76-0.15 M42.14,26.15c0.09-0.15,0.66,0.13,0.54,0.37S42.05,26.29,42.14,26.15 M38,21.81
	c0.06,0.05,0.13,0.09,0.2,0.12c0.11,0.06,0.29,0.07,0.32,0.19s-0.17,0.37-0.26,0.44s-0.24,0.13-0.22,0.22s0.38,0,0.45,0
	c0.16-0.01,0.31,0.03,0.44,0.12c0.17,0.12,0.26,0.32,0.23,0.52c-0.03,0.24-0.1,0.46-0.22,0.67c-0.06,0.09-0.25,0.3-0.37,0.32
	s-0.38-0.14-0.53-0.21c-0.32-0.17-0.66-0.33-1-0.47c-0.24-0.14-0.52-0.2-0.79-0.17c-0.17,0.06-0.34,0.14-0.5,0.22
	c-0.16,0.1-0.34,0.17-0.53,0.19c-0.2,0-0.37-0.3-0.45-0.53c-0.06-0.24-0.1-0.49-0.13-0.74c-0.08-0.16-0.14-0.33-0.18-0.51
	c0.02-0.15,0.06-0.3,0.12-0.44c-0.01-0.21,0.02-0.41,0.08-0.61c0.04-0.21,0.06-0.43,0.06-0.65v-0.3c0.14-0.07,0.3-0.11,0.46-0.11
	c0.48-0.05,0.96-0.15,1.42-0.29c0.27-0.1,0.54-0.21,0.8-0.33c0.25-0.13,0.51-0.25,0.77-0.35c0.17-0.06,0.28,0.05,0.36,0.21v0.11
	c0.28,0.57,0.39,1.2,0.31,1.83c0.01,0.19-0.08,0.36-0.23,0.47c-0.29,0.14-0.77-0.13-0.83-0.05s0.1,0.12,0.16,0.16 M34.94,19.84
	c0.36-0.07,0.76-0.11,1.14-0.17s1.36-0.42,1.42-0.38s-0.15,0.13-0.24,0.18c-0.49,0.27-1.01,0.45-1.56,0.53c-0.35,0.05-1,0.14-1,0
	s0.2-0.13,0.3-0.15 M40,17.9c-0.29,0.2-0.61,0.37-0.93,0.51c-0.13,0.07-0.35,0.24-0.52,0.19h-0.06l-0.06-0.12
	c-0.1-0.16-0.16-0.34-0.19-0.53c0-0.16,0.3-0.28,0.48-0.39c0.17-0.13,0.36-0.23,0.57-0.3c0.3-0.07,0.6-0.03,0.88,0.09
	c0.09,0.05,0.15,0.11,0.15,0.19S40.1,17.86,40,17.93 M38.9,15.29c0.34,0.1,0.68,0.23,1,0.38c0.3,0.16,0.6,0.34,0.88,0.54
	c0.17,0.1,0.4,0.19,0.34,0.44s-0.16,0.2-0.28,0.27l-0.14,0.1c-0.3,0.09-0.62-0.12-0.84-0.18s-0.2-0.33-0.34-0.45
	s-0.22-0.08-0.2-0.17s0.13-0.09,0.21-0.08s0.46,0.18,0.5,0.12s-0.26-0.22-0.43-0.29s-0.51-0.23-0.75-0.36c0-0.09-0.09-0.26,0-0.32
	 M35.75,15.78c0.06-0.1,0.15-0.18,0.26-0.22c0.17,0.16,0.36,0,0.5-0.08s0.47,0,0.65,0s0.11,0.18,0.18,0.19s0.13-0.09,0.14-0.12
	s-0.11-0.23-0.15-0.23c-0.14-0.05-0.22-0.19-0.19-0.34c0.08-0.09,0.25,0,0.36,0s0.09-0.15,0.17-0.2c0.18-0.03,0.36-0.03,0.54,0
	c0.2,0,0.54,0.11,0.53,0.31c-0.01,0.09-0.07,0.17-0.16,0.19c-0.18,0-0.44,0-0.5,0.09s0.42,0.26,0.58,0.5
	c0.14,0.26,0.2,0.55,0.16,0.84c-0.14,0.3-0.4,0.52-0.72,0.61c-0.07,0.04-0.14,0.07-0.22,0.09c-0.33,0-0.36-0.32-0.48-0.53
	c-0.36,0.07-0.12,0.34,0,0.57s0.47,0.72,0.69,1.1l0,0c0.04,0.06,0.06,0.12,0.06,0.19c0,0.17-0.58,0.29-0.75,0.35
	c-0.88,0.3-1.79,0.49-2.71,0.59c-0.07-0.04-0.12-0.1-0.15-0.17c0.02-0.07,0.02-0.15,0-0.22V19c0.09-0.2,0.28-0.19,0.56-0.27
	s0.28-0.15,0.45-0.13h0.08l0.08,0.06l0.21,0.13l0,0c0.2,0.1,0.41,0.19,0.47,0.16s0-0.22,0-0.32s0.35,0.07,0.5,0s0.14-0.25,0.16-0.43
	s0.15-0.15,0.17-0.26c-0.04-0.23-0.14-0.44-0.29-0.61c-0.28-0.32-0.59-0.62-0.92-0.89c-0.14-0.13-0.41-0.34-0.41-0.49
	s0.13-0.21,0.19-0.29 M35.12,16.07c0.1-0.16,0.43,0.14,0.62,0.3c0.3,0.25,0.59,0.53,0.85,0.82c0.13,0.15,0.36,0.29,0.31,0.5h-0.54
	c-0.12,0-0.09,0.21-0.16,0.29s-0.31-0.19-0.45-0.31c-0.15-0.11-0.29-0.23-0.43-0.35c-0.08-0.07-0.13-0.17-0.14-0.27
	c0-0.13,0.21-0.18,0.23-0.31c0-0.29-0.38-0.5-0.29-0.66 M35.24,18.08h0.09c0.07,0.31-0.2,0.37-0.46,0.44s-0.38,0.18-0.52,0.09l0,0
	V18.5c0-0.12-0.21-0.38-0.18-0.49s0.23-0.1,0.37-0.1c0.27,0.01,0.53,0.06,0.78,0.15 M32.49,15.42c0.2,0,0.33-0.23,0.54-0.23
	c0.13,0.01,0.26,0.07,0.36,0.15c0.1,0.08,0.14,0.22,0.25,0.27h0.33c0.13,0.05,0.25,0.13,0.35,0.22c0.13,0.1,0.3,0.2,0.32,0.37
	c-0.02,0.27-0.16,0.53-0.37,0.7c-0.13,0.16-0.22,0.33-0.45,0.37c-0.41,0.02-0.8-0.19-1-0.55c-0.04-0.09-0.07-0.19-0.08-0.29
	c0-0.15,0.16-0.32,0.08-0.37s-0.17,0.07-0.22,0.16c-0.06,0.2-0.06,0.42,0,0.62c0.12,0.22,0.27,0.42,0.44,0.59
	c0.19,0.14,0.37,0.29,0.54,0.45c0.14,0.16,0.25,0.34,0.32,0.54c0.04,0.1,0.04,0.2,0,0.3c-0.09,0.18-0.62,0.3-0.87,0.36
	c-0.66,0.16-1.34,0.31-2,0.42c-0.35,0.07-0.7,0.11-1.06,0.13c-0.06,0-0.06,0-0.06-0.07s0.1-0.33,0.18-0.34s0.36,0.38,0.58,0.09
	c0-0.12-0.12-0.16-0.07-0.28s0.4,0,0.51,0c0.17-0.02,0.32-0.13,0.4-0.28v-0.23c0.05-0.13,0.09-0.27,0.12-0.41
	c-0.01-0.3-0.06-0.59-0.16-0.87c-0.09-0.27-0.34-0.46-0.29-0.82c0.08-0.22,0.2-0.43,0.35-0.61l0.21-0.27
	c0.05-0.1,0.12-0.19,0.19-0.28c0.13-0.11,0.51-0.22,0.53,0.07 M29.33,19.33v-0.06c0-0.16,0.28-0.19,0.39-0.19s0.06,0,0.08,0.06
	s0,0,0,0.06c-0.04,0.16-0.13,0.3-0.27,0.39c-0.08-0.07-0.16-0.16-0.21-0.26 M30.23,19.7c0.48-0.09,1-0.13,1.45-0.23
	c0.6-0.17,1.22-0.31,1.84-0.4c0,0.07-0.23,0.15-0.37,0.19c-1.01,0.35-2.06,0.56-3.13,0.63h-0.21c0.14-0.06,0.28-0.1,0.42-0.14
	 M31,15.59c0.2-0.4,0.49-0.74,0.85-1c0.11-0.07,0.26,0.09,0.26,0.19s-0.23,0.31-0.31,0.4c-0.34,0.4-0.61,0.86-0.8,1.35
	c-0.44-0.11-0.11-0.53,0.06-0.82 M29.79,16.89c0.16,0,0.33,0.19,0.39,0.12s-0.18-0.33-0.24-0.52c-0.05-0.09-0.05-0.2,0-0.29
	c0.07-0.14,0.41,0,0.54,0.12c0.4,0.4,0.71,0.87,0.93,1.39c0,0.1,0.06,0.2,0.08,0.3s0,0.27-0.11,0.27s-0.11-0.22-0.19-0.23
	s-0.05,0.54-0.27,0.61s-0.22-0.11-0.25-0.19c-0.02-0.17-0.02-0.34,0-0.51c0-0.13-0.2-0.17-0.33-0.28c-0.1-0.09-0.2-0.2-0.29-0.3
	c-0.1-0.09-0.19-0.19-0.27-0.29v-0.2 M28.78,18.15c0.25,0.07,0.5,0.12,0.76,0.15c0.13,0.12,0.3,0.22,0.3,0.43
	c0.01,0.05,0.01,0.1,0,0.15l-0.05,0.08c-0.2,0.05-0.4,0.07-0.6,0.06c-0.06,0-0.1-0.07-0.15-0.13l0,0c-0.13-0.21-0.23-0.42-0.32-0.65
	c0-0.08,0.06-0.1,0.1-0.08 M25.4,19.44c0.93-0.01,1.86-0.07,2.78-0.18c0.16,0,0.34-0.06,0.48-0.06s0.17,0,0.18,0.09
	s-0.23,0.11-0.29,0.12c-0.78,0.1-1.78,0.09-2.59,0.16c-0.28,0-0.87,0.08-0.89,0s0.23-0.1,0.33-0.1 M29.87,23.68
	c-0.14,0.04-0.28,0.04-0.42,0c-0.75-0.14-1.51-0.47-2.24-0.58c-0.19-0.03-0.37-0.03-0.56,0c-0.2,0-0.33,0.19-0.57,0.21
	c-0.22-0.23-0.08-0.55-0.15-0.83s-0.18-0.29-0.23-0.44c-0.05-0.15-0.08-0.3-0.1-0.46c-0.04-0.48-0.13-0.96-0.25-1.43l0,0
	c-0.01-0.05-0.01-0.09,0-0.14c0-0.18,0.48-0.2,0.72-0.22c0.87-0.07,1.79-0.15,2.58-0.2c0.14-0.02,0.28,0.02,0.39,0.1
	c0.06,0.04,0.11,0.1,0.14,0.17V20c0.13,0.35,0.2,0.72,0.2,1.1c0,0.41,0,0.88-0.27,1.05c-0.15,0.08-0.32,0.11-0.49,0.08
	c-0.08,0-0.21-0.06-0.26,0s0.14,0.11,0.21,0.13l0.27,0.11c0.18,0.07,0.41,0.11,0.57,0.19c0.2,0.12,0.36,0.31,0.43,0.54
	c0.07,0.17,0.07,0.35,0,0.52 M30.15,23.09c-0.06-0.14-0.13-0.26-0.22-0.38c-0.06-0.08-0.22-0.24-0.24-0.35s0.11-0.46,0.12-0.71
	s-0.09-0.84-0.09-1.19v-0.07l0,0c0,0,0.65-0.14,1-0.19l1-0.17c0.64-0.14,1.27-0.34,1.87-0.45c0.14-0.02,0.27-0.02,0.41,0
	c0.1,0.03,0.18,0.11,0.23,0.2c-0.01,0.11,0.01,0.21,0.05,0.31c0.07,0.39,0.07,0.79,0,1.18c-0.03,0.18-0.06,0.36-0.11,0.54
	c0,0.2-0.06,0.63-0.33,0.71c-0.34,0.04-0.69-0.01-1-0.16c0.06,0.44,0.71,0.34,1.08,0.49c0.14,0.05,0.24,0.23,0.3,0.35
	c0.1,0.15,0.12,0.33,0.06,0.5c-0.27,0-0.4-0.2-0.57-0.3c-0.23-0.15-0.48-0.25-0.75-0.3c-0.21,0-0.42,0.07-0.65,0.08H32
	c-0.28,0.1-0.53,0.27-0.73,0.49c-0.13,0.1-0.48,0.52-0.67,0.54c-0.08-0.01-0.16-0.04-0.22-0.09c-0.08-0.32-0.05-0.7-0.16-1
	 M30.55,25.12c0-0.19-0.14-0.36-0.11-0.54s0.27-0.27,0.37-0.33l0.4-0.3c0.24-0.24,0.53-0.43,0.84-0.55h0.78
	c0.33-0.01,0.65,0.1,0.91,0.31l0.39,0.25c0.29,0.19,0.61,0.29,0.86,0.45c0.08,0.06,0.15,0.12,0.21,0.2c0.05,0.13,0.08,0.26,0.07,0.4
	c0.04,0.16,0.1,0.31,0.18,0.45c0.1,0.16,0.45,0.43,0.24,0.59s-0.55,0-0.67-0.08s-0.27-0.24-0.22-0.35s0.28,0,0.34-0.15
	S35,25.06,34.9,25s-0.38-0.07-0.49-0.12s-0.31-0.42-0.51-0.54s-0.23-0.06-0.32-0.1s-0.33-0.32-0.56-0.29s-0.29,0.26-0.41,0.31
	c-0.17,0.07-0.35,0.1-0.53,0.08c-0.24-0.04-0.49,0.02-0.69,0.15c-0.04,0.06-0.08,0.12-0.11,0.19c-0.11,0.18-0.25,0.34-0.41,0.47
	c-0.11,0.06-0.24,0.06-0.35,0 M34.14,25.26c0.13-0.09,0.22,0.09,0.33,0.17c-0.2,0.15-0.31,0.39-0.3,0.64
	c-0.12-0.02-0.24-0.05-0.35-0.09C33.82,25.71,33.94,25.45,34.14,25.26 M33.46,25.7c-0.3,0.14-0.57-0.11-0.92-0.13H32
	c-0.28-0.01-0.55-0.1-0.77-0.27c0.06-0.14,0.16-0.26,0.28-0.35c0.11-0.1,0.24-0.18,0.38-0.24h0.3c0.31-0.02,0.61-0.1,0.88-0.24
	c0.17-0.09,0.27,0.13,0.37,0.23c0.15,0.12,0.32,0.23,0.49,0.32c-0.15,0.21-0.19,0.56-0.44,0.67 M29.92,26.69
	c0.19,0.06,0.39,0.13,0.53,0.16s0.13,0,0.18,0.07c-0.17,0.2-0.42,0.3-0.68,0.28c-0.13-0.05-0.25-0.13-0.34-0.23
	c-0.15-0.11-0.31-0.17-0.34-0.36C29.4,26.46,29.69,26.61,29.92,26.69 M25.92,25.37c0.21-0.37,0.58-0.64,1-0.72h0.39
	c0.13,0,0.33-0.13,0.48-0.15c0.33,0.02,0.64,0.13,0.91,0.31c0.06,0.08,0.11,0.16,0.16,0.25c0.12,0.15,0.39,0.25,0.4,0.41
	s-0.09,0.14-0.17,0.23S29,25.87,28.9,25.89c-0.14,0-0.29-0.02-0.42-0.07c-0.28-0.06-0.5-0.12-0.8-0.17
	c-0.14-0.04-0.28-0.06-0.43-0.06c-0.24,0-0.39,0.26-0.6,0.31c-0.28,0.05-0.57,0.05-0.85,0c-0.19-0.21,0-0.41,0.11-0.55 M19.7,31
	c-0.12,0.04-0.24,0.04-0.36,0c0,0,0.09-0.15,0.19-0.16s0.2,0.07,0.17,0.13 M17.88,29.27c0.11-0.28,0.27-0.64,0.49-0.73
	c0.34-0.12,0.71-0.14,1.06-0.05c0.24,0.08,0.12,0.64,0.06,1c-0.17,0.6-0.52,1.13-1,1.52c-1,0.11-0.9-1-0.64-1.75 M16.37,31.26
	c0,0.17-0.38,0.26-0.58,0.18s-0.36-0.25-0.31-0.44c0.03-0.09,0.07-0.19,0.12-0.27c0.08-0.14,0.1-0.31,0.27-0.32s0.21,0.14,0.3,0.29
	S16.42,31.05,16.37,31.26 M18.97,32.36c-0.14,0-0.2-0.27-0.16-0.35s0.35-0.14,0.4,0C19.22,32.17,19.12,32.31,18.97,32.36
	 M19.86,32.64c-0.09,0.18-0.12,0.36-0.25,0.38c-0.23-0.05-0.38-0.28-0.34-0.52c0.11-0.28,0.35-0.48,0.64-0.55
	c0.03,0.01,0.07,0.02,0.09,0.05c0,0.25-0.18,0.36-0.27,0.53 M21.38,31.92c-0.39,0.06-0.57-0.32-0.81-0.41h-1.09
	c-0.37,0.06-0.76,0.06-1.13,0c-0.18-0.1-0.38-0.17-0.59-0.2c-0.34,0-0.89,0.09-1.11-0.06s-0.17-0.56-0.15-0.88
	c0.11-0.74-0.11-1.5-0.61-2.06c0,0-0.21-0.18-0.2-0.29c0-0.31,0.4-0.06,0.53,0c0.31,0.16,0.89,0.19,1.12,0.39s0,1.09-0.07,1.6v0.44
	c-0.02,0.14-0.02,0.27,0,0.41c0.07,0.17,0.46,0.23,0.73,0.25c0.63,0.02,1.26-0.02,1.88-0.11h0.47c0.24-0.06,0.49-0.06,0.73,0
	c0.13,0.07,0.25,0.16,0.35,0.27c0.09,0.08,0.25,0.22,0.25,0.37c-0.02,0.13-0.13,0.24-0.26,0.27 M22.91,32.57h-0.07
	c-0.09,0.04-0.18,0.04-0.27,0c-0.09-0.04-0.17-0.1-0.22-0.19c-0.04-0.07-0.04-0.17,0-0.24c0-0.16,0.19-0.18,0.36-0.19
	S23.02,32.29,22.91,32.57 M23.24,31.58c0,0.15-0.44,0.22-0.63,0.23s-0.78,0-0.7-0.23s0.52-0.13,0.7-0.13S23.22,31.45,23.24,31.58
	 M21.72,30.58c0.29,0.02,0.59,0.02,0.88,0c0.58,0,1.15,0,1.74-0.06c0.28-0.03,0.57-0.03,0.85,0c0.18,0,0.43,0.25,0.37,0.43
	s-0.27,0.11-0.41,0c-0.15-0.17-0.36-0.27-0.59-0.25c-0.32,0-0.44,0.11-0.71,0.14c-0.49,0.05-1,0.05-1.53,0.11s-0.77,0.14-1,0
	s-0.17-0.55-0.45-0.56s-0.17,0.13-0.25,0.19c-0.07,0.08-0.17,0.14-0.28,0.15c-0.22-0.03-0.39-0.18-0.46-0.39
	c0.07-0.23,0.16-0.46,0.26-0.68c0.08-0.26,0-0.76,0.16-1s0.42-0.32,0.61-0.16c0.22,0.36,0.3,0.79,0.23,1.21
	c0,0.15-0.13,0.25-0.12,0.39S21.45,30.54,21.72,30.58 M22.73,28.29c-0.13,0.11-0.24,0.2-0.34,0.3C22.27,28.73,22.14,28.87,22,29
	c-0.1,0.08-0.22,0.13-0.35,0.13c-0.18,0-0.31-0.33-0.38-0.51c-0.04-0.11-0.07-0.23-0.1-0.35c-0.05-0.11-0.09-0.22-0.11-0.34
	c0-0.41,0.27-0.5,0.53-0.68S21.84,27,22,27s0.2,0.11,0.3,0.2c0.16,0.17,0.32,0.33,0.5,0.48c0.1,0.08,0.21,0.18,0.21,0.25
	s-0.2,0.24-0.31,0.32 M27.24,29.73c-0.09-0.19-0.55-0.29-0.61-0.55c-0.1-0.42,0.35-0.35,0.39-0.67c-0.46-0.06-1,0.16-1.52,0.12
	c-0.35,0-0.69-0.09-1-0.24c-0.15-0.08-0.6-0.37-0.56-0.63s0.22-0.24,0.35-0.3c0.33-0.12,0.66-0.23,1-0.31
	c0.37-0.09,0.73-0.21,1.05-0.28c0.29-0.06,0.6,0.01,0.85,0.17c0.17,0.09,0.32,0.16,0.34,0.31c0.01,0.19-0.04,0.37-0.14,0.53
	c-0.08,0.14-0.23,0.25-0.22,0.42s0.16,0,0.24,0.08c0.28,0.11,0.41,0.71,0.41,1.15s0,1-0.31,1s-0.2-0.54-0.3-0.78 M28.21,31.56
	c0.33,0.07,0.66,0.1,1,0.09h1.51c0.23,0.01,0.46,0.04,0.68,0.08h0.48c0.2,0.09,0.3,0.32,0.23,0.53c-0.18,0-0.3-0.2-0.37-0.19
	s-0.35,0.21-0.61,0.16s-0.36-0.22-0.6-0.22c-0.39-0.03-0.79-0.03-1.18,0h-0.61c-0.18-0.02-0.36-0.02-0.54-0.01
	c-0.14,0-0.24,0.13-0.37,0.11s-0.3-0.8-0.13-0.89s0.45,0.38,0.61,0.47 M29.31,27.69c-0.07-0.1-0.16-0.18-0.26-0.25
	c-0.15-0.16-0.32-0.29-0.52-0.38c-0.23-0.1-0.49-0.1-0.71-0.18s-0.5-0.37-0.93-0.35c-0.28,0.02-0.56,0.08-0.83,0.16
	c-0.49,0.07-0.98,0.18-1.46,0.31c-0.3,0.19-0.65,0.29-1,0.3c-0.18,0-0.56-0.1-0.56-0.26s0.4-0.13,0.61-0.17
	c0.41-0.08,0.66-0.43,1.06-0.61c0.42-0.12,0.85-0.2,1.29-0.26c0.43-0.15,0.87-0.27,1.32-0.35c0.26,0.01,0.51,0.07,0.75,0.18
	c0.16,0.08,0.26,0.29,0.36,0.43c0.1,0.16,0.22,0.31,0.36,0.44c0.08,0.08,0.22,0.11,0.31,0.19s0.13,0.16,0.21,0.23
	c0.26,0.18,0.51,0.39,0.73,0.62c0.15,0.18,0.22,0.4,0.21,0.63c-0.21,0.06-0.43,0.04-0.62-0.06c-0.26-0.16-0.2-0.55-0.34-0.81
	 M30.47,29.41c0,0-0.78-0.29-0.74-0.49s0.78-0.26,0.84,0.13C30.58,29.18,30.54,29.3,30.47,29.41 M30.12,27.58
	c-0.08-0.08-0.21-0.15-0.22-0.27s0.23-0.08,0.37-0.06c0.4,0.06,0.76,0.27,1,0.59c0.05,0.18,0.07,0.36,0.06,0.55
	c0,0.17,0.07,0.35,0.08,0.49s0,0.61-0.24,0.62S31,29.22,31,29c0-0.71-0.47-1-0.85-1.38 M31.52,31.08c0,0.24-0.5,0.1-0.53-0.06
	c-0.02-0.07-0.02-0.14,0-0.21c-0.03-0.19-0.03-0.39,0-0.58c0.08-0.12,0.25-0.16,0.37-0.08c0.09,0.06,0.14,0.17,0.12,0.28
	c0,0.12-0.19,0.27-0.2,0.35s0.25,0.12,0.23,0.3 M32.65,27.27c0,0.09-0.53,0.18-0.73,0.2c-0.24,0.01-0.48-0.03-0.7-0.12
	c-0.11,0-0.38-0.1-0.39-0.19s0.33-0.21,0.41-0.23c0.17-0.06,0.36-0.1,0.54-0.11c0.17,0.03,0.34,0.09,0.5,0.17
	C32.38,26.99,32.68,27.14,32.65,27.27 M34.08,27.58c0.14,0.26,0.27,0.53,0.38,0.81c-0.18,0.13-0.41,0.13-0.59,0
	c-0.11-0.11-0.1-0.31-0.17-0.47c-0.12-0.16-0.25-0.31-0.4-0.45c-0.22-0.29-0.34-0.64-0.34-1c-0.12-0.17-0.28,0-0.49,0
	c-0.18,0-0.36-0.04-0.53-0.12c-0.14-0.06-0.28-0.23-0.4-0.23s-0.18,0.15-0.21,0.27s-0.25,0.2-0.38,0.16s-0.11-0.21-0.15-0.39
	s-0.1-0.24-0.08-0.35c0.12-0.04,0.25-0.04,0.37,0c0.38,0,0.8-0.16,1.14-0.15s0.39,0.16,0.6,0.19c0.35,0.4,0.66,0.83,0.92,1.3
	c0.09,0.15,0.22,0.26,0.33,0.41 M36.77,27.3c0.11,0.14,0.23,0.37,0.14,0.49s-0.57-0.06-0.66-0.38c-0.02-0.12-0.05-0.23-0.1-0.34
	c-0.08-0.11-0.38-0.12-0.59-0.14c-0.68-0.08-1.32-0.1-1.94-0.23c-0.14-0.19-0.27-0.4-0.37-0.62c0.07-0.1,0.14-0.12,0.32-0.11
	c0.62,0.06,1.24,0.21,1.82,0.44c0.27,0.09,0.53,0.22,0.76,0.38C36.38,26.93,36.59,27.1,36.77,27.3 M38.77,26.01
	c-0.46-0.06-0.94-0.06-1.4,0c-0.14,0.07-0.24,0.26-0.39,0.35s-0.39,0.15-0.58,0.26c-0.19-0.08-0.33-0.2-0.52-0.28s0-0.53-0.05-0.76
	s-0.22-0.28-0.22-0.41c0-0.3,0.61-0.48,0.9-0.5s1.1,0.19,0.54,0.35c-0.1,0-0.21,0-0.22,0.11s0.21,0.15,0.38,0.14
	c0.22-0.07,0.45-0.12,0.68-0.13c0.22,0.03,0.44,0.11,0.63,0.23c0.1,0.12,0.18,0.26,0.24,0.4c0.02,0.08,0.02,0.15,0,0.23
	 M38.68,25.26c-0.34-0.36-1-0.39-1.33-0.75c0-0.08,0.06-0.1,0-0.22s-0.49-0.17-0.76-0.08c-0.14,0.05-0.27,0.12-0.4,0.2
	c-0.15,0.05-0.3,0.11-0.44,0.18c-0.12,0.07-0.25,0.24-0.38,0.29c0.02-0.12,0.02-0.24,0-0.36c0-0.13-0.1-0.17-0.09-0.24
	s0.25-0.14,0.34-0.18c0.25-0.11,0.47-0.37,0.79-0.35c0.44,0.02,0.87,0.16,1.24,0.39c0.46,0.21,0.91,0.44,1.35,0.69
	c0.17,0.1,0.52,0.33,0.54,0.48s-0.19,0.33-0.34,0.34s-0.37-0.25-0.51-0.39 M39,26c0.06-0.21,0.79-0.13,0.8,0.14S38.94,26.21,39,26
	 M40.34,25.2c0.12,0,0.28,0,0.31,0.08c-0.01,0.15-0.06,0.3-0.15,0.43c-0.11,0.17-0.3,0.28-0.5,0.29c-0.08-0.15-0.08-0.32,0-0.47
	c0.12-0.11,0.27-0.18,0.43-0.21 M41.76,23.65c0,0.19-0.46,0.22-0.69,0.31s-0.25,0.28-0.4,0.48S40.2,25,40,25s-0.18-0.29-0.13-0.44
	s0.45-0.36,0.6-0.5s0.43-0.6,0.92-0.65c0.24,0,0.4,0.1,0.38,0.29 M44.49,24.7c-0.16,0.19-0.64,0.07-0.63-0.15
	S44.54,24.34,44.49,24.7"/>
</svg>
